<?xml version="1.0" standalone="no"?>
<!DOCTYPE svg PUBLIC "-//W3C//DTD SVG 20010904//EN"
 "http://www.w3.org/TR/2001/REC-SVG-20010904/DTD/svg10.dtd">
<svg version="1.0" xmlns="http://www.w3.org/2000/svg"
 width="512.000000pt" height="512.000000pt" viewBox="0 0 512.000000 512.000000"
 preserveAspectRatio="xMidYMid meet">

<g transform="translate(0.000000,512.000000) scale(0.100000,-0.100000)"
fill="#000000" stroke="none">
<path d="M2330 4870 c-488 -53 -949 -256 -1311 -577 -105 -93 -121 -132 -74
-178 43 -44 73 -35 172 52 118 103 228 183 341 250 98 57 261 137 267 131 2
-2 -6 -63 -18 -136 l-22 -131 -297 -261 -298 -260 -245 0 c-147 0 -254 -4
-265 -10 -41 -22 -166 -288 -230 -486 -78 -243 -104 -423 -104 -704 0 -243 14
-360 69 -575 210 -818 852 -1460 1670 -1670 214 -55 332 -69 575 -69 242 0
357 13 574 68 866 219 1535 932 1705 1817 105 547 1 1135 -284 1611 -237 395
-565 698 -969 897 -214 105 -450 179 -686 216 -125 19 -450 28 -570 15z m1191
-378 c214 -108 399 -242 564 -407 90 -90 201 -223 250 -297 l17 -28 -160 0
-161 0 -298 260 -298 261 -17 102 c-9 56 -20 117 -23 135 -3 17 -2 32 3 32 5
0 61 -26 123 -58z m-1363 -497 l322 -129 0 -232 0 -233 -366 -256 -366 -255
-274 102 -274 103 0 275 1 275 287 251 c286 250 287 251 317 239 17 -6 175
-69 353 -140z m1530 -149 c155 -135 289 -246 297 -246 13 0 15 -25 15 -160 0
-138 -2 -160 -15 -160 -9 0 -27 -11 -40 -25 -22 -21 -25 -33 -25 -92 l0 -68
-274 -103 -274 -102 -366 256 -366 256 0 232 0 232 353 141 352 141 30 -27
c17 -16 157 -139 313 -275z m-2260 -1006 l267 -101 144 -431 c79 -238 144
-437 145 -444 1 -6 -71 -98 -159 -204 -88 -106 -163 -197 -166 -202 -6 -9
-535 118 -554 133 -6 4 -75 169 -154 366 l-142 358 173 312 c95 172 174 313
175 313 2 0 123 -45 271 -100z m2710 -213 l173 -312 -142 -358 c-79 -197 -148
-362 -154 -366 -5 -4 -122 -36 -260 -70 -137 -34 -258 -64 -267 -67 -12 -4
-62 49 -185 196 -92 111 -168 207 -167 214 1 7 66 206 145 443 l143 431 266
101 c146 55 267 100 270 100 3 1 83 -140 178 -312z m-3553 -324 l70 -38 147
-365 c81 -201 147 -372 148 -380 0 -27 -93 -280 -101 -274 -23 14 -176 261
-229 370 -103 209 -187 499 -206 712 l-7 74 54 -31 c30 -16 86 -47 124 -68z
m4121 25 c-19 -213 -104 -504 -206 -712 -53 -109 -206 -356 -229 -370 -8 -6
-101 248 -101 275 1 8 67 178 148 378 l147 365 120 67 c66 37 122 68 124 68 2
1 1 -32 -3 -71z m-1541 -763 c88 -106 161 -197 162 -202 2 -4 -98 -126 -222
-271 -223 -260 -237 -280 -219 -326 3 -8 73 -70 155 -138 82 -67 149 -125 149
-128 0 -19 -271 -75 -440 -91 -133 -12 -350 -8 -485 11 -105 14 -337 70 -333
80 2 4 60 55 130 114 l127 106 161 0 c158 0 161 1 185 25 16 15 25 36 25 55 0
19 -9 40 -25 55 -24 24 -28 25 -182 25 l-158 1 -200 235 c-110 129 -199 241
-199 248 1 7 73 99 160 204 l159 191 445 0 445 1 160 -195z"/>
</g>
</svg>
