<?xml version="1.0" standalone="no"?>
<!DOCTYPE svg PUBLIC "-//W3C//DTD SVG 20010904//EN"
 "http://www.w3.org/TR/2001/REC-SVG-20010904/DTD/svg10.dtd">
<svg version="1.0" xmlns="http://www.w3.org/2000/svg"
 width="64.000000pt" height="64.000000pt" viewBox="0 0 64.000000 64.000000"
 preserveAspectRatio="xMidYMid meet">

<g transform="translate(0.000000,64.000000) scale(0.100000,-0.100000)"
fill="#000000" stroke="none">
<path d="M320 585 c-26 -31 13 -82 44 -56 19 16 21 42 4 59 -16 16 -33 15 -48
-3z"/>
<path d="M300 493 c-49 -10 -148 -118 -136 -149 8 -20 30 -8 49 29 10 18 27
39 39 46 20 12 20 11 13 -26 -4 -21 -20 -69 -36 -107 -16 -39 -27 -76 -25 -83
9 -24 35 -14 60 24 l25 37 3 -100 c3 -92 4 -99 24 -102 19 -3 22 2 22 35 1 43
36 258 52 315 10 35 13 37 36 28 34 -13 121 -13 129 1 10 16 0 21 -50 25 -26
3 -60 11 -75 19 -28 14 -78 17 -130 8z"/>
<path d="M150 125 c-26 -32 13 -81 48 -59 9 6 18 19 20 28 8 38 -43 61 -68 31z"/>
</g>
</svg>
